<svg width="166" height="54" viewBox="0 0 166 54" fill="none" xmlns="http://www.w3.org/2000/svg">
<path fill-rule="evenodd" clip-rule="evenodd" d="M9.81443 0.913086H156.526C159.786 0.913086 160.966 1.2783 162.159 1.95656C163.335 2.62386 164.298 3.65558 164.92 4.91742C165.553 6.19567 165.893 7.46088 165.893 10.9435V43.0564C165.893 46.539 165.553 47.8042 164.92 49.0824C164.298 50.3443 163.335 51.376 162.159 52.0433C160.966 52.7216 159.786 53.0868 156.538 53.0868H9.80226C6.55417 53.0868 5.37415 52.7216 4.18197 52.0433C3.00509 51.376 2.04284 50.3443 1.42048 49.0824C0.78789 47.8042 0.447266 46.539 0.447266 43.0564V10.9435C0.447266 7.46088 0.78789 6.19567 1.42048 4.91742C2.04284 3.65558 3.00509 2.62386 4.18197 1.95656C5.37415 1.2783 6.55417 0.913086 9.80226 0.913086H9.81443Z" fill="black"/>
<path d="M37.3688 27.0392C37.3931 24.6001 38.5853 22.3566 40.5195 21.0783C39.9136 20.1517 39.114 19.3896 38.1847 18.8529C37.2554 18.3162 36.222 18.0197 35.1669 17.9871C32.9285 17.7262 30.7509 19.4218 29.6074 19.4218C28.4396 19.4218 26.6756 18.0131 24.7778 18.0523C23.5501 18.0952 22.3535 18.4781 21.3047 19.1638C20.2558 19.8495 19.3904 20.8147 18.7926 21.9653C16.2014 26.7783 18.1357 33.8348 20.6174 37.7217C21.8582 39.613 23.2937 41.7391 25.2036 41.6609C27.0527 41.5826 27.7583 40.3956 29.9845 40.3956C32.2108 40.3956 32.8555 41.6609 34.7898 41.6217C36.7848 41.5826 38.0379 39.7043 39.2422 37.787C40.1303 36.4304 40.8237 34.9305 41.2738 33.3522C40.1167 32.8272 39.1294 31.9486 38.435 30.8259C37.7406 29.7033 37.3697 28.3863 37.3688 27.0392ZM33.7071 15.4305C34.7948 14.0334 35.3316 12.2366 35.2034 10.4219C33.5368 10.6175 32.0039 11.4653 30.9091 12.8088C30.3702 13.4657 29.9574 14.23 29.6944 15.0582C29.4313 15.8863 29.3232 16.7619 29.3763 17.6349C30.2068 17.6438 31.0284 17.4499 31.7787 17.068C32.529 16.6861 33.1885 16.1262 33.7071 15.4305Z" fill="white"/>
<path d="M62.8542 35.6608H57.1001L55.7133 40.0434H53.2803L58.7303 23.8435H61.2728L66.7228 40.0434H64.2411L62.8542 35.6608ZM57.6962 33.6391H62.2582L60.0076 26.5304H59.9468L57.6962 33.6391ZM78.4986 34.1347C78.4986 37.7999 76.6739 40.1608 73.9002 40.1608C73.2001 40.2008 72.5037 40.0288 71.8906 39.6643C71.2775 39.2999 70.7724 38.7577 70.4331 38.0999H70.3845V43.9434H68.1218V28.2261H70.3115V30.1826H70.348C70.7026 29.5258 71.217 28.9846 71.8363 28.617C72.4555 28.2494 73.1563 28.0692 73.8637 28.0956C76.6617 28.0956 78.4986 30.4695 78.4986 34.1347ZM76.1751 34.1347C76.1751 31.7478 75.0194 30.1695 73.2554 30.1695C71.5402 30.1695 70.3723 31.7739 70.3723 34.1347C70.3723 36.5086 71.5402 38.113 73.2676 38.113C75.0194 38.113 76.1751 36.5478 76.1751 34.1347ZM90.6151 34.1347C90.6151 37.7999 88.7903 40.1608 86.0289 40.1608C85.3288 40.2008 84.6324 40.0288 84.0193 39.6643C83.4061 39.2999 82.901 38.7577 82.5618 38.0999H82.501V43.9434H80.2504V28.2261H82.4401V30.1826H82.4766C82.8302 29.5278 83.3427 28.9879 83.9596 28.6204C84.5766 28.253 85.2748 28.0716 85.9802 28.0956C88.7782 28.0956 90.6151 30.4695 90.6151 34.1347ZM88.3037 34.1347C88.3037 31.7478 87.148 30.1695 85.3841 30.1695C83.6566 30.1695 82.501 31.7739 82.501 34.1347C82.501 36.5086 83.6566 38.113 85.3841 38.113C87.148 38.113 88.3037 36.5478 88.3037 34.1347ZM98.6319 35.5304C98.8023 37.1347 100.25 38.1913 102.245 38.1913C104.155 38.1913 105.53 37.1347 105.53 35.6869C105.53 34.4217 104.69 33.6782 102.732 33.1565L100.785 32.6478C97.9994 31.9304 96.722 30.5478 96.722 28.2913C96.722 25.487 98.9847 23.5696 102.208 23.5696C105.408 23.5696 107.598 25.487 107.671 28.2913H105.384C105.25 26.6739 103.997 25.6826 102.184 25.6826C100.359 25.6826 99.1186 26.6739 99.1186 28.1217C99.1186 29.2565 99.9093 29.9478 101.856 30.4565L103.522 30.8869C106.624 31.6695 107.902 33.013 107.902 35.3739C107.902 38.413 105.651 40.3043 102.075 40.3043C98.7293 40.3043 96.4665 38.4521 96.3206 35.5304H98.6319ZM112.792 25.4348V28.2261H114.885V30.1435H112.792V36.6652C112.792 37.6695 113.206 38.1391 114.13 38.1391C114.374 38.1391 114.617 38.113 114.86 38.0869V39.9912C114.459 40.0825 114.033 40.1217 113.619 40.1086C111.381 40.1086 110.517 39.1956 110.517 36.913V30.1435H108.911V28.2261H110.517V25.4348H112.792ZM116.089 34.1347C116.089 30.4174 118.133 28.0826 121.32 28.0826C124.507 28.0826 126.551 30.4304 126.551 34.1347C126.551 37.8652 124.519 40.1869 121.32 40.1869C118.121 40.1869 116.089 37.8652 116.089 34.1347ZM124.24 34.1347C124.24 31.5913 123.145 30.0913 121.32 30.0913C119.495 30.0913 118.4 31.5913 118.4 34.1347C118.4 36.6913 119.495 38.1782 121.32 38.1782C123.145 38.1782 124.24 36.6913 124.24 34.1347ZM128.412 28.2261H130.565V30.2348H130.614C130.918 28.9435 132.025 28.0565 133.266 28.1087C133.522 28.1087 133.789 28.1348 134.045 28.2V30.4695C133.714 30.3577 133.369 30.3049 133.023 30.313C132.693 30.2973 132.364 30.3587 132.059 30.4929C131.753 30.6271 131.479 30.831 131.254 31.0904C131.03 31.3497 130.861 31.6584 130.758 31.9949C130.656 32.3314 130.624 32.6877 130.663 33.0391V40.0434H128.412V28.2261ZM144.458 36.5739C144.154 38.713 142.208 40.1869 139.714 40.1869C136.514 40.1869 134.531 37.8782 134.531 34.1869C134.531 30.4826 136.526 28.0826 139.629 28.0826C142.67 28.0826 144.592 30.3261 144.592 33.913V34.7347H136.806V34.8913C136.771 35.3258 136.823 35.7633 136.958 36.1748C137.093 36.5863 137.308 36.9624 137.588 37.2781C137.869 37.5938 138.209 37.842 138.586 38.0062C138.963 38.1703 139.368 38.2468 139.774 38.2304C140.869 38.3347 141.903 37.6695 142.317 36.5739H144.458ZM136.818 33.0521H142.329C142.349 32.6613 142.294 32.2703 142.167 31.9035C142.039 31.5366 141.843 31.2019 141.589 30.9203C141.336 30.6387 141.031 30.4162 140.693 30.2669C140.356 30.1175 139.993 30.0444 139.629 30.0522C138.886 30.0522 138.175 30.3682 137.65 30.9308C137.125 31.4934 136.831 32.2565 136.831 33.0521H136.818Z" fill="white"/>
<path d="M57.4167 11.6478C57.8905 11.6128 58.3657 11.6909 58.8079 11.8765C59.2502 12.062 59.6486 12.3505 59.9744 12.721C60.3002 13.0915 60.5453 13.5349 60.692 14.0192C60.8387 14.5035 60.8835 15.0166 60.823 15.5217C60.823 17.9999 59.57 19.4347 57.4167 19.4347H54.7891V11.6478H57.4167ZM55.9204 18.326H57.2829C57.6209 18.347 57.959 18.2872 58.2728 18.1511C58.5866 18.0149 58.8683 17.8058 59.0976 17.5387C59.3268 17.2717 59.498 16.9534 59.5986 16.6069C59.6992 16.2603 59.7268 15.8941 59.6795 15.5347C59.7268 15.1753 59.6992 14.8092 59.5986 14.4626C59.498 14.116 59.3268 13.7978 59.0976 13.5307C58.8683 13.2637 58.5866 13.0545 58.2728 12.9184C57.959 12.7822 57.6209 12.7225 57.2829 12.7434H55.9204V18.326ZM62.1003 16.4869C62.076 16.1069 62.1248 15.7256 62.2437 15.3667C62.3626 15.0078 62.549 14.679 62.7915 14.4006C63.0339 14.1222 63.3271 13.9002 63.6529 13.7485C63.9788 13.5967 64.3302 13.5184 64.6854 13.5184C65.0406 13.5184 65.3921 13.5967 65.7179 13.7485C66.0437 13.9002 66.3369 14.1222 66.5793 14.4006C66.8218 14.679 67.0082 15.0078 67.1271 15.3667C67.246 15.7256 67.2948 16.1069 67.2705 16.4869C67.2948 16.8669 67.246 17.2482 67.1271 17.6071C67.0082 17.966 66.8218 18.2948 66.5793 18.5732C66.3369 18.8516 66.0437 19.0736 65.7179 19.2253C65.3921 19.3771 65.0406 19.4554 64.6854 19.4554C64.3302 19.4554 63.9788 19.3771 63.6529 19.2253C63.3271 19.0736 63.0339 18.8516 62.7915 18.5732C62.549 18.2948 62.3626 17.966 62.2437 17.6071C62.1248 17.2482 62.076 16.8669 62.1003 16.4869ZM66.1513 16.4869C66.1513 15.2217 65.6282 14.4782 64.6915 14.4782C63.7426 14.4782 63.2195 15.2217 63.2195 16.4869C63.2195 17.7782 63.7426 18.5086 64.6793 18.5086C65.6282 18.5086 66.1513 17.7652 66.1513 16.4869ZM74.1316 19.4347H73.0125L71.8811 15.1043H71.7959L70.6646 19.4347H69.5697L68.0491 13.5652H69.1439L70.1171 18.0391H70.2023L71.3337 13.5521H72.3677L73.4991 18.0391H73.5842L74.5574 13.5521H75.6401L74.1316 19.4347ZM76.9053 13.5652H77.9515V14.4913H78.0367C78.3165 13.8 78.9734 13.3826 79.6668 13.4478C79.9332 13.425 80.2009 13.467 80.45 13.5707C80.6991 13.6743 80.9232 13.8368 81.1056 14.0462C81.2881 14.2555 81.4241 14.5063 81.5035 14.7799C81.583 15.0534 81.6038 15.3426 81.5646 15.626V19.4347H80.4697V15.913C80.4697 14.9739 80.1047 14.5043 79.3018 14.5043C79.1204 14.4937 78.9389 14.5255 78.7701 14.5976C78.6012 14.6697 78.449 14.7804 78.324 14.9218C78.199 15.0633 78.1042 15.2322 78.0462 15.4169C77.9882 15.6015 77.9683 15.7975 77.988 15.9913V19.4347H76.9053V13.5652ZM83.292 11.2695H84.3625V19.4347H83.2798L83.292 11.2695ZM85.871 16.4869C85.8467 16.1069 85.8955 15.7256 86.0144 15.3667C86.1333 15.0078 86.3197 14.679 86.5622 14.4006C86.8046 14.1222 87.0978 13.9002 87.4236 13.7485C87.7495 13.5967 88.1009 13.5184 88.4561 13.5184C88.8113 13.5184 89.1628 13.5967 89.4886 13.7485C89.8144 13.9002 90.1076 14.1222 90.35 14.4006C90.5925 14.679 90.7789 15.0078 90.8978 15.3667C91.0167 15.7256 91.0655 16.1069 91.0412 16.4869C91.0655 16.8669 91.0167 17.2482 90.8978 17.6071C90.7789 17.966 90.5925 18.2948 90.35 18.5732C90.1076 18.8516 89.8144 19.0736 89.4886 19.2253C89.1628 19.3771 88.8113 19.4554 88.4561 19.4554C88.1009 19.4554 87.7495 19.3771 87.4236 19.2253C87.0978 19.0736 86.8046 18.8516 86.5622 18.5732C86.3197 18.2948 86.1333 17.966 86.0144 17.6071C85.8955 17.2482 85.8467 16.8669 85.871 16.4869ZM89.922 16.4869C89.922 15.2217 89.3867 14.4782 88.4622 14.4782C87.5133 14.4782 86.9902 15.2217 86.9902 16.4869C86.9902 17.7782 87.5133 18.5086 88.45 18.5086C89.3867 18.5086 89.922 17.7652 89.922 16.4869ZM92.1726 17.7652C92.1726 16.7217 92.9025 16.1086 94.2163 16.0173L95.7005 15.926V15.4173C95.7005 14.8043 95.3112 14.4521 94.5691 14.4521C93.9608 14.4521 93.5472 14.6869 93.4377 15.1043H92.3794C92.501 14.0869 93.3769 13.4478 94.6178 13.4478C95.9924 13.4478 96.771 14.1782 96.771 15.4173V19.4347H95.7248V18.5999H95.6396C95.2868 19.213 94.6664 19.5651 93.9973 19.526C93.7672 19.5516 93.5347 19.5251 93.3147 19.4482C93.0947 19.3714 92.8922 19.246 92.7202 19.0801C92.5483 18.9141 92.4107 18.7114 92.3164 18.4849C92.222 18.2584 92.173 18.0132 92.1726 17.7652ZM95.7005 17.2695V16.7739L94.3623 16.8652C93.608 16.9173 93.2674 17.2043 93.2674 17.713C93.2674 18.2347 93.6932 18.5478 94.2771 18.5478C94.4495 18.5675 94.6237 18.5498 94.7895 18.4957C94.9553 18.4416 95.1092 18.3522 95.2421 18.2329C95.375 18.1136 95.484 17.9668 95.5628 17.8012C95.6415 17.6357 95.6884 17.4549 95.7005 17.2695ZM98.1943 16.4869C98.1943 14.6347 99.0824 13.4608 100.469 13.4608C101.163 13.4217 101.82 13.826 102.148 14.4913H102.221V11.2695H103.316V19.4347H102.27V18.5086H102.184C101.832 19.1608 101.175 19.5521 100.469 19.526C99.0702 19.526 98.1943 18.3521 98.1943 16.4869ZM99.3135 16.4869C99.3135 17.7391 99.8609 18.4825 100.773 18.4825C101.686 18.4825 102.245 17.726 102.245 16.4999C102.245 15.2739 101.674 14.5043 100.773 14.5043C99.8609 14.5043 99.3135 15.2608 99.3135 16.4869ZM107.78 16.4869C107.756 16.1069 107.805 15.7256 107.924 15.3667C108.043 15.0078 108.229 14.679 108.472 14.4006C108.714 14.1222 109.007 13.9002 109.333 13.7485C109.659 13.5967 110.01 13.5184 110.366 13.5184C110.721 13.5184 111.072 13.5967 111.398 13.7485C111.724 13.9002 112.017 14.1222 112.259 14.4006C112.502 14.679 112.688 15.0078 112.807 15.3667C112.926 15.7256 112.975 16.1069 112.951 16.4869C112.975 16.8669 112.926 17.2482 112.807 17.6071C112.688 17.966 112.502 18.2948 112.259 18.5732C112.017 18.8516 111.724 19.0736 111.398 19.2253C111.072 19.3771 110.721 19.4554 110.366 19.4554C110.01 19.4554 109.659 19.3771 109.333 19.2253C109.007 19.0736 108.714 18.8516 108.472 18.5732C108.229 18.2948 108.043 17.966 107.924 17.6071C107.805 17.2482 107.756 16.8669 107.78 16.4869ZM111.831 16.4869C111.831 15.2217 111.296 14.4782 110.372 14.4782C109.423 14.4782 108.9 15.2217 108.9 16.4869C108.9 17.7782 109.423 18.5086 110.359 18.5086C111.296 18.5086 111.831 17.7652 111.831 16.4869ZM114.398 13.5652H115.432V14.4913H115.517C115.797 13.8 116.454 13.3826 117.16 13.4478C117.425 13.4271 117.691 13.4707 117.939 13.5752C118.187 13.6797 118.409 13.8425 118.59 14.0516C118.771 14.2607 118.906 14.5108 118.985 14.7833C119.064 15.0558 119.084 15.3438 119.045 15.626V19.4347H117.975V15.913C117.975 14.9739 117.586 14.5043 116.783 14.5043C116.602 14.4956 116.422 14.5289 116.255 14.6019C116.087 14.6749 115.937 14.7858 115.813 14.927C115.689 15.0682 115.596 15.2365 115.538 15.4202C115.481 15.6039 115.462 15.7987 115.481 15.9913V19.4347H114.386V13.5652H114.398ZM125.164 12.0913V13.5913H126.344V14.5565H125.164V17.5825C125.164 18.1956 125.396 18.4695 125.931 18.4695L126.344 18.4434V19.4086C126.15 19.4478 125.955 19.4608 125.761 19.4608C124.544 19.4608 124.082 19.0043 124.082 17.8825V14.5565H123.206V13.5913H124.082V12.0913H125.164ZM127.816 11.2695H128.899V14.5043H128.984C129.276 13.813 129.945 13.3826 130.651 13.4608C130.915 13.445 131.179 13.4918 131.425 13.598C131.67 13.7041 131.891 13.867 132.071 14.075C132.251 14.283 132.386 14.531 132.467 14.8013C132.547 15.0717 132.571 15.3577 132.537 15.6391V19.4217H131.454V15.926C131.454 14.9869 131.04 14.5173 130.286 14.5173C130.1 14.4993 129.912 14.5254 129.736 14.5938C129.56 14.6622 129.4 14.7711 129.268 14.913C129.136 15.0548 129.034 15.2261 128.97 15.4146C128.907 15.6032 128.882 15.8045 128.899 16.0043V19.4347H127.816V11.2695ZM138.838 17.8434C138.69 18.379 138.372 18.842 137.938 19.1518C137.505 19.4616 136.984 19.5987 136.466 19.5391C136.106 19.5481 135.748 19.4734 135.417 19.32C135.087 19.1667 134.791 18.9384 134.551 18.6508C134.31 18.3633 134.131 18.0233 134.025 17.6542C133.918 17.2852 133.888 16.8958 133.936 16.513C133.889 16.1283 133.919 15.7373 134.025 15.3663C134.131 14.9954 134.31 14.6531 134.55 14.3626C134.789 14.0721 135.085 13.8401 135.415 13.6823C135.746 13.5245 136.104 13.4445 136.466 13.4478C137.986 13.4478 138.899 14.5565 138.899 16.4086V16.7999H135.043V16.8782C135.026 17.0938 135.051 17.3109 135.117 17.5154C135.183 17.72 135.288 17.9075 135.425 18.0659C135.563 18.2244 135.729 18.3503 135.915 18.4355C136.1 18.5207 136.301 18.5634 136.502 18.5608C137.025 18.626 137.536 18.3391 137.804 17.8434H138.838ZM135.043 15.9521H137.804C137.818 15.7557 137.793 15.5585 137.731 15.3728C137.67 15.1872 137.573 15.0173 137.448 14.8738C137.322 14.7303 137.17 14.6165 137.001 14.5394C136.832 14.4623 136.65 14.4237 136.466 14.426C136.278 14.4225 136.091 14.4596 135.917 14.535C135.743 14.6104 135.585 14.7227 135.452 14.8651C135.319 15.0076 135.215 15.1772 135.144 15.364C135.074 15.5507 135.039 15.7507 135.043 15.9521Z" fill="white"/>
</svg>
