<svg width="100" height="100" viewBox="0 0 100 100" fill="none" xmlns="http://www.w3.org/2000/svg">
<path d="M0 99.3941V82.9438H8.15265C9.80052 82.9438 11.0147 83.3767 11.882 84.156C12.7493 84.9352 13.183 86.0607 13.183 87.446C13.183 88.1387 13.0095 88.8313 12.5759 89.3508C12.229 89.8703 11.7086 90.3032 11.1015 90.5629C11.4484 90.7361 11.7953 90.8226 12.0555 91.0824C12.4024 91.2555 12.6626 91.5153 12.8361 91.8616C13.0963 92.2079 13.2697 92.5542 13.3565 92.9871C13.5299 93.42 13.5299 93.9395 13.5299 94.5456C13.5299 96.0174 13.0095 97.2296 12.0555 98.0954C11.0147 98.9612 9.54033 99.3941 7.37207 99.3941H0ZM3.29575 85.801V89.3508H7.63226C9.01995 89.3508 9.71379 88.7447 9.71379 87.5326C9.71379 86.9265 9.54033 86.4936 9.19341 86.1473C8.84649 85.8876 8.23938 85.7144 7.4588 85.7144H3.29575V85.801ZM7.71899 96.6235C8.49957 96.6235 9.10668 96.3638 9.54033 95.9309C9.97398 95.498 10.2342 94.8919 10.2342 94.2858C10.2342 93.5932 9.97398 93.0737 9.54033 92.7274C9.10668 92.3811 8.49957 92.2079 7.71899 92.2079H3.29575V96.6235H7.71899Z" fill="white"/>
<path d="M17.0859 99.3937V96.0171H20.5552V99.3937H17.0859Z" fill="white"/>
<path d="M26.7125 99.3941V93.1603L20.9883 82.9438H24.9779L28.4471 89.6105L31.6561 82.9438H35.6457L30.095 93.2469V99.3941H26.7125Z" fill="white"/>
<path d="M35.9932 99.3937V96.0171H39.4624V99.3937H35.9932Z" fill="white"/>
<path d="M46.054 99.3941V85.801H41.1104V82.9438H54.5535V85.801H49.4365V99.3941H46.054Z" fill="white"/>
<path d="M55.9414 99.3937V96.0171H59.4106V99.3937H55.9414Z" fill="white"/>
<path d="M63.4863 99.3941V82.9438H75.6286V85.801H66.7821V89.3508H74.848V92.2079H66.7821V96.4503H75.9755V99.3941H63.4863Z" fill="white"/>
<path d="M79.5312 99.3937V96.0171H83.0005V99.3937H79.5312Z" fill="white"/>
<path d="M96.2703 87.7922C96.1835 86.9264 95.9233 86.3203 95.3162 85.8874C94.7958 85.4545 94.0153 85.2814 92.8878 85.2814C90.893 85.2814 89.9389 85.974 89.9389 87.2727C89.9389 87.7922 90.1124 88.1385 90.5461 88.4848C90.9797 88.8311 91.5868 89.0909 92.5408 89.2641C93.5816 89.5238 94.5356 89.7835 95.3162 89.9567C96.0968 90.1299 96.7906 90.3896 97.4845 90.7359C97.8314 90.9091 98.1783 91.0822 98.5252 91.2554C98.8722 91.5151 99.1324 91.7749 99.3058 92.1212C99.566 92.4675 99.7395 92.8138 99.8262 93.3333C99.9997 93.7662 99.9997 94.3723 99.9997 94.9783C99.9997 95.7576 99.8262 96.4502 99.4793 97.0563C99.1323 97.6623 98.6987 98.1818 98.1783 98.6147C97.6579 99.0476 96.9641 99.3939 96.1835 99.5671C95.403 99.8268 94.6224 99.9134 93.7551 99.9134C91.3266 99.9134 89.592 99.4805 88.3778 98.5281C87.1636 97.5757 86.5565 96.1905 86.4697 94.3723H89.7655C89.7655 95.2381 90.1124 95.8441 90.8062 96.3636C91.5001 96.8831 92.2807 97.0563 93.3214 97.0563C94.4489 97.0563 95.2295 96.8831 95.8366 96.4502C96.357 96.0173 96.7039 95.4978 96.7039 94.8052C96.7039 94.5454 96.7039 94.2857 96.6172 94.1125C96.5304 93.8528 96.4437 93.6796 96.2703 93.5065C96.0968 93.3333 95.8366 93.1602 95.4897 92.987C95.1428 92.8138 94.7091 92.7273 94.1887 92.6407C92.8878 92.3809 91.847 92.1212 90.893 91.8615C89.9389 91.6017 89.2451 91.2554 88.638 90.8225C88.0309 90.3896 87.5972 89.9567 87.337 89.3506C87.0768 88.7446 86.9034 88.0519 86.9034 87.1861C86.9034 86.4935 86.9901 85.8874 87.2503 85.2814C87.5105 84.6753 87.8574 84.1558 88.3778 83.7229C88.8982 83.29 89.5053 82.9437 90.2859 82.684C91.0664 82.4242 91.9337 82.3376 92.9745 82.3376C93.9285 82.3376 94.8826 82.4242 95.6631 82.684C96.4437 82.9437 97.1376 83.29 97.7447 83.8095C98.3518 84.2424 98.7854 84.8485 99.0456 85.5411C99.3925 86.2338 99.566 86.9264 99.566 87.7922H96.2703Z" fill="white"/>
<path d="M29.3145 14.4588V42.684C29.3145 42.684 38.9415 39.4805 45.8799 33.2468C44.4923 28.7446 39.4619 13.593 32.35 13.593C30.5287 13.5065 29.4879 14.0259 29.3145 14.4588Z" fill="#FCD411"/>
<path d="M36.6869 11.2554C38.5082 11.7748 42.5846 17.4025 44.1457 20.9523C46.8343 19.3073 49.0026 19.3939 50.3035 19.3939C51.6045 19.3939 56.1145 19.9134 56.7216 24.5887C56.895 25.8008 55.5941 29.3506 48.7424 31.8614C49.1761 32.9004 49.6097 34.1125 49.6097 34.1125C49.6097 34.1125 38.4215 42.5974 29.4883 44.8484C29.4883 48.4848 29.4883 53.0736 29.4883 54.8917C29.4883 56.7099 29.6617 63.5497 34.6921 63.5497C36.7736 61.4718 43.7988 56.3636 50.477 52.4675C48.0486 52.4675 39.8959 53.3333 40.3296 49.6103C40.6765 46.58 41.2836 44.5887 43.6253 44.5887C45.967 44.5887 49.1761 44.0692 51.5178 43.3766C53.8595 42.6839 61.5785 42.6839 63.9202 46.8398C68.2567 45.3679 74.5013 43.8961 75.4553 43.8961C74.6747 41.645 72.5932 38.1818 65.8283 34.5454C66.7823 31.948 68.17 28.1385 68.17 24.2424C68.17 20.3463 64.2671 8.65796 49.523 8.65796C42.8447 8.65796 36.6869 11.2554 36.6869 11.2554Z" fill="white"/>
<path d="M42.2373 61.3853C45.7932 58.0086 50.2165 54.9783 55.5938 52.2078C59.4966 51.5151 62.8791 51.342 64.2668 48.658C66.6085 48.0519 75.0213 45.974 75.9754 45.6277C76.2356 47.8788 77.4498 58.4415 62.7924 62.8571C49.3492 66.0606 42.2373 61.3853 42.2373 61.3853Z" fill="white"/>
<path d="M50.0431 3.0303C69.2105 3.0303 84.7352 18.5281 84.7352 37.6623C84.7352 56.7965 69.2105 72.2944 50.0431 72.2944C30.8757 72.2944 15.351 56.7965 15.351 37.6623C15.351 18.5281 30.8757 3.0303 50.0431 3.0303ZM50.0431 0C39.9824 0 30.4421 3.8961 23.3302 10.9957C16.2183 18.1818 12.3154 27.619 12.3154 37.6623C12.3154 47.7056 16.2183 57.2294 23.3302 64.329C30.4421 71.4286 39.9824 75.3247 50.0431 75.3247C60.1038 75.3247 69.6442 71.4286 76.7561 64.329C83.8679 57.2294 87.7708 47.7922 87.7708 37.6623C87.7708 27.5325 83.8679 18.1818 76.6693 10.9957C69.4707 3.80952 60.1038 0 50.0431 0Z" fill="white"/>
</svg>
