<svg width="167" height="54" viewBox="0 0 167 54" fill="none" xmlns="http://www.w3.org/2000/svg">
<path fill-rule="evenodd" clip-rule="evenodd" d="M10.0166 0.912842H156.728C159.989 0.912842 161.169 1.27806 162.361 1.95632C163.538 2.62361 164.5 3.65533 165.122 4.91717C165.755 6.19543 166.095 7.46064 166.095 10.9432V43.0561C166.095 46.5387 165.755 47.8039 165.122 49.0822C164.5 50.344 163.538 51.3758 162.361 52.043C161.169 52.7213 159.989 53.0865 156.74 53.0865H10.0044C6.75632 53.0865 5.5763 52.7213 4.38412 52.043C3.20724 51.3758 2.24499 50.344 1.62263 49.0822C0.990038 47.8039 0.649414 46.5387 0.649414 43.0561V10.9432C0.649414 7.46064 0.990038 6.19543 1.62263 4.91717C2.24499 3.65533 3.20724 2.62361 4.38412 1.95632C5.5763 1.27806 6.75632 0.912842 10.0044 0.912842H10.0166Z" fill="black"/>
<path fill-rule="evenodd" clip-rule="evenodd" d="M19.8216 39.743L19.9676 39.7822C19.9182 39.7724 19.8694 39.7593 19.8216 39.743ZM40.624 24.8735C41.1714 25.1996 41.512 25.6301 41.6215 26.0735L41.6458 26.2431C41.5972 26.7387 41.2444 27.2344 40.6118 27.6127L21.3909 39.3126C21.0016 39.5604 20.6245 39.6648 20.296 39.6648C19.9554 39.6648 19.6634 39.5474 19.4201 39.3256L19.3471 39.2474C19.0283 38.835 18.8674 38.3082 18.897 37.7735V14.7127C18.897 14.0084 19.0917 13.4736 19.4201 13.1475C19.6634 12.9258 19.9554 12.8084 20.296 12.8084C20.6245 12.8084 21.0016 12.9258 21.3909 13.1605L40.6118 24.8735H40.624ZM20.2839 12.6519H20.4542H20.2839ZM131.96 39.2083H134.223V22.904H131.96V39.2083ZM152.397 28.7735L149.794 35.8431H149.721L147.02 28.7735H144.575L148.626 38.6604L146.315 44.1517H148.687L154.928 28.7735H152.397ZM139.527 37.3561C138.785 37.3561 137.75 36.9648 137.75 35.9735C137.75 34.7083 139.04 34.2257 140.147 34.2257C141.157 34.2257 141.619 34.4605 142.227 34.7735C142.145 35.4815 141.826 36.1334 141.329 36.6084C140.832 37.0833 140.192 37.349 139.527 37.3561ZM139.806 28.4213C138.152 28.4213 136.461 29.204 135.755 30.9126L137.763 31.8257C138.201 30.9126 139.004 30.6257 139.831 30.6257C141.011 30.6257 142.203 31.3692 142.227 32.7126V32.8822C141.497 32.4674 140.682 32.2524 139.855 32.2561C137.69 32.2561 135.476 33.5344 135.476 35.9213C135.476 38.1126 137.264 39.5213 139.247 39.5213C140.78 39.5213 141.619 38.7778 142.154 37.917H142.227V39.1822H144.417V32.9213C144.417 30.0387 142.398 28.4213 139.794 28.4213H139.806ZM125.768 30.7692H122.544V25.1605H125.768C127.471 25.1605 128.444 26.6735 128.444 27.9648C128.444 29.23 127.471 30.7561 125.768 30.7561V30.7692ZM125.719 22.904H120.269V39.2083H122.544V33.0257H125.707C128.225 33.0257 130.695 31.0692 130.695 27.9648C130.695 24.8605 128.225 22.904 125.707 22.904H125.719ZM96.0484 37.3561C94.4912 37.3561 93.1774 35.9474 93.1774 34.017C93.1774 32.0605 94.4912 30.6257 96.0484 30.6257C97.6055 30.6257 98.822 32.0605 98.822 34.017C98.822 35.9474 97.6055 37.3561 96.0484 37.3561ZM98.6639 29.6866H98.5787C98.2328 29.2841 97.8108 28.9654 97.3409 28.7517C96.871 28.5381 96.364 28.4343 95.8537 28.4474C94.5145 28.5017 93.2479 29.114 92.3232 30.1542C91.3986 31.1943 90.8889 32.5801 90.9025 34.017C90.8923 35.449 91.4042 36.8287 92.3291 37.8618C93.2541 38.895 94.5188 39.4998 95.8537 39.5474C96.3664 39.5615 96.8758 39.4557 97.3464 39.2372C97.8171 39.0187 98.2376 38.6928 98.5787 38.2822H98.6639V39.0778C98.6639 41.2039 97.6055 42.3387 95.9024 42.3387C95.3331 42.327 94.7799 42.1333 94.3139 41.7824C93.848 41.4315 93.4903 40.9394 93.2869 40.3691L91.3161 41.243C91.6875 42.219 92.3227 43.0535 93.14 43.6392C93.9573 44.225 94.9193 44.5352 95.9024 44.53C98.5666 44.53 100.817 42.8343 100.817 38.7517V28.7866H98.6639V29.6996V29.6866ZM102.386 39.2083H104.661V22.904H102.386V39.2083ZM108.007 33.8213C107.982 33.4179 108.033 33.0132 108.156 32.631C108.279 32.2488 108.472 31.8968 108.723 31.5956C108.975 31.2943 109.28 31.0499 109.62 30.8767C109.961 30.7034 110.331 30.6048 110.707 30.5866C111.62 30.5866 112.386 31.0692 112.629 31.7605L108.007 33.8344V33.8213ZM115.062 31.9822C114.637 30.7431 113.323 28.4605 110.634 28.4605C107.97 28.4605 105.756 30.6909 105.756 33.9909C105.756 37.1083 107.946 39.5474 110.89 39.5474C113.262 39.5474 114.637 37.9822 115.208 37.0822L113.445 35.83C113.179 36.3001 112.803 36.6879 112.356 36.9555C111.908 37.223 111.403 37.3611 110.89 37.3561C109.734 37.3561 108.907 36.7952 108.384 35.6735L115.306 32.6083L115.062 31.9822ZM59.9544 30.1561V32.5039H65.1976C65.1219 33.6065 64.7019 34.6496 64.0054 35.4648C63.4782 36.0407 62.8442 36.4915 62.1442 36.7881C61.4443 37.0847 60.6942 37.2204 59.9422 37.1865C59.1798 37.1849 58.4253 37.0211 57.7223 36.7048C57.0193 36.3884 56.3818 35.9257 55.8467 35.3435C55.3116 34.7612 54.8895 34.071 54.6048 33.3127C54.3201 32.5544 54.1785 31.7431 54.1881 30.9257C54.1738 29.712 54.493 28.5206 55.1059 27.5002C55.7188 26.4797 56.5983 25.6752 57.6347 25.187C58.6712 24.6988 59.8187 24.5485 60.9343 24.7549C62.0499 24.9612 63.0841 25.5151 63.9081 26.3474L65.453 24.6909C64.728 23.922 63.8671 23.316 62.9208 22.9084C61.9745 22.5008 60.9619 22.2997 59.9422 22.317C57.8015 22.3168 55.7465 23.2196 54.2214 24.8304C52.6963 26.4412 51.8235 28.6306 51.7916 30.9257C51.8235 33.2208 52.6963 35.4102 54.2214 37.021C55.7465 38.6318 57.8015 39.5346 59.9422 39.5343C62.3388 39.5343 64.1392 38.6996 65.5504 37.1213C66.8293 35.6228 67.5105 33.6471 67.4481 31.617C67.4481 31.0692 67.4116 30.5735 67.3265 30.1561H59.9422H59.9544ZM73.4212 37.3561C71.8519 37.3561 70.5016 35.9735 70.5016 33.9909C70.5016 31.9952 71.8519 30.6387 73.4212 30.6387C75.0027 30.6387 76.3408 31.9952 76.3408 33.9909C76.3408 35.9735 75.0027 37.3561 73.4212 37.3561ZM73.4212 28.4474C72.738 28.4352 72.0593 28.57 71.4255 28.8439C70.7918 29.1178 70.2156 29.5253 69.7313 30.0421C69.247 30.559 68.8643 31.1748 68.6058 31.853C68.3474 32.5313 68.2185 33.2583 68.2267 33.9909C68.2168 34.7246 68.3445 35.453 68.6022 36.1328C68.8599 36.8125 69.2424 37.4299 69.7269 37.9482C70.2114 38.4664 70.7881 38.875 71.4227 39.1498C72.0573 39.4245 72.7369 39.5597 73.4212 39.5474C74.1055 39.5597 74.7851 39.4245 75.4197 39.1498C76.0543 38.875 76.631 38.4664 77.1155 37.9482C77.6 37.4299 77.9825 36.8125 78.2402 36.1328C78.4979 35.453 78.6256 34.7246 78.6157 33.9909C78.6239 33.2583 78.495 32.5313 78.2366 31.853C77.9781 31.1748 77.5954 30.559 77.1111 30.0421C76.6268 29.5253 76.0507 29.1178 75.4169 28.8439C74.7831 28.57 74.1045 28.4352 73.4212 28.4474ZM84.7591 37.3561C83.1777 37.3561 81.8395 35.9735 81.8395 33.9909C81.8395 31.9952 83.1777 30.6387 84.7591 30.6387C86.3163 30.6387 87.6788 31.9952 87.6788 33.9909C87.6788 35.9735 86.3163 37.3561 84.7591 37.3561ZM84.7591 28.4474C84.0759 28.4352 83.3973 28.57 82.7635 28.8439C82.1297 29.1178 81.5536 29.5253 81.0692 30.0421C80.5849 30.559 80.2022 31.1748 79.9437 31.853C79.6853 32.5313 79.5564 33.2583 79.5646 33.9909C79.5547 34.7246 79.6824 35.453 79.9401 36.1328C80.1979 36.8125 80.5803 37.4299 81.0648 37.9482C81.5493 38.4664 82.126 38.875 82.7606 39.1498C83.3952 39.4245 84.0748 39.5597 84.7591 39.5474C85.4434 39.5597 86.123 39.4245 86.7576 39.1498C87.3923 38.875 87.9689 38.4664 88.4534 37.9482C88.9379 37.4299 89.3204 36.8125 89.5781 36.1328C89.8358 35.453 89.9635 34.7246 89.9536 33.9909C89.9619 33.2583 89.8329 32.5313 89.5745 31.853C89.3161 31.1748 88.9333 30.559 88.449 30.0421C87.9647 29.5253 87.3886 29.1178 86.7548 28.8439C86.121 28.57 85.4424 28.4352 84.7591 28.4474Z" fill="white"/>
<path fill-rule="evenodd" clip-rule="evenodd" d="M58.4946 14.1258C58.4946 15.1041 58.227 15.8867 57.6796 16.4737C57.0713 17.165 56.2562 17.5171 55.2709 17.5171C54.322 17.5171 53.5069 17.165 52.8378 16.4606C52.5163 16.1209 52.263 15.7142 52.0935 15.2655C51.9241 14.8169 51.842 14.3358 51.8524 13.8519C51.8524 12.8085 52.1809 11.9215 52.85 11.2172C53.5069 10.5128 54.3098 10.1606 55.2709 10.1606C55.7331 10.1606 56.1832 10.265 56.609 10.4606C57.047 10.6563 57.3876 10.9172 57.6431 11.2432L57.0591 11.8563C56.8397 11.5807 56.5646 11.3624 56.2548 11.2177C55.9449 11.0731 55.6085 11.006 55.2709 11.0215C54.5774 11.0215 53.9813 11.2824 53.4704 11.8041C52.9716 12.3259 52.7162 13.0041 52.7162 13.8389C52.7162 14.6737 52.9595 15.3519 53.4704 15.8737C53.9813 16.3954 54.5653 16.6563 55.2709 16.6563C56.0008 16.6563 56.609 16.3954 57.0956 15.8737C57.4119 15.5215 57.6066 15.0519 57.6552 14.4389H55.2709V13.5911H58.446C58.4824 13.7737 58.4946 13.9563 58.4946 14.1128" fill="white"/>
<path fill-rule="evenodd" clip-rule="evenodd" d="M58.4944 14.1258H58.3849C58.3849 15.091 58.1173 15.8214 57.6063 16.3954C56.9981 17.0606 56.2317 17.3997 55.2706 17.3997C54.3461 17.3997 53.5675 17.0606 52.9228 16.3823C52.6073 16.0526 52.3591 15.6563 52.1937 15.2186C52.0282 14.7808 51.9493 14.311 51.9617 13.8388C51.9617 12.8215 52.278 11.9867 52.9349 11.2954C53.2393 10.9644 53.6034 10.7035 54.005 10.5286C54.4066 10.3536 54.8372 10.2684 55.2706 10.278C55.7207 10.278 56.1587 10.3693 56.5723 10.5649C56.9859 10.7606 57.3022 11.0084 57.5577 11.3215L57.6428 11.2432L57.5577 11.1649L56.9859 11.778L57.0589 11.8562L57.1441 11.791C56.694 11.2041 56.0492 10.9041 55.2706 10.9041C54.5407 10.9041 53.9203 11.178 53.3972 11.7258C52.8741 12.2606 52.6065 12.978 52.6065 13.8388C52.6065 14.6997 52.8741 15.4041 53.3972 15.9519C53.9203 16.4997 54.5529 16.7736 55.2706 16.7736C56.0249 16.7736 56.6696 16.4997 57.1806 15.9519C57.5212 15.5867 57.7158 15.078 57.7645 14.4519V14.3215H55.3923V13.7084H58.4579V13.591L58.3484 13.6171C58.3849 13.7867 58.3971 13.9562 58.3971 14.1258H58.6161C58.6161 13.9432 58.6039 13.7606 58.5674 13.578L58.5552 13.4736H55.149V14.5562H57.6428V14.4388H57.5212C57.4847 15.0258 57.3022 15.4693 57.0103 15.7823C56.5358 16.291 55.964 16.5388 55.2585 16.5388C54.5894 16.5388 54.0176 16.278 53.531 15.7823C53.0444 15.2867 52.8011 14.6475 52.8011 13.8388C52.8011 13.0302 53.0444 12.4041 53.531 11.8823C54.0176 11.3867 54.5894 11.1389 55.2585 11.1389C55.9884 11.1389 56.548 11.3997 56.9616 11.9345L57.0467 12.0389L57.7037 11.3215L57.7767 11.2563L57.7158 11.1649C57.4244 10.8044 57.0576 10.5228 56.6453 10.3432C56.2105 10.1452 55.743 10.0432 55.2706 10.0432C54.2974 10.0432 53.4459 10.4084 52.7768 11.1389C52.4421 11.487 52.1776 11.9051 51.9997 12.3673C51.8218 12.8295 51.7344 13.3259 51.7427 13.8258C51.7427 14.8954 52.0834 15.8084 52.7768 16.5388C53.1021 16.8914 53.491 17.1692 53.9198 17.3553C54.3485 17.5415 54.8082 17.632 55.2706 17.6214C56.2803 17.6214 57.1197 17.2562 57.7523 16.5388L57.6793 16.4606L57.7523 16.5519C58.3241 15.9388 58.6039 15.1171 58.6039 14.1128H58.4944V14.1258ZM63.5429 11.178H60.5503V13.4215H63.251V14.2562H60.5503V16.4997H63.5429V17.3606H59.7109V10.3171H63.5429V11.178Z" fill="white"/>
<path fill-rule="evenodd" clip-rule="evenodd" d="M63.5431 11.1782V11.0608H60.441V13.5391H63.1416V14.1391H60.441V16.6173H63.4336V17.2434H59.8205V10.4347H63.4336V11.1782H63.5431V11.0608V11.1913H63.6526V10.2H59.6016V17.4782H63.6526V16.3825H60.6599V14.3738H63.3606V13.3043H60.6599V11.2956H63.6526V11.1782H63.5309H63.5431ZM67.0953 17.3608H66.2559V11.1782H64.4311V10.3173H68.9322V11.1782H67.1075V17.3608" fill="white"/>
<path fill-rule="evenodd" clip-rule="evenodd" d="M67.0954 17.3608V17.2434H66.3655V11.0608H64.5407V10.4347H68.8228V11.0608H66.9981V17.3608H67.0954V17.2434V17.3738H67.217V11.2956H69.0418V10.2H64.3096V11.2956H66.1465V17.4782H67.2049V17.3608H67.0954ZM72.2048 17.3608H73.0563V10.3173H72.2048V17.3608Z" fill="white"/>
<path fill-rule="evenodd" clip-rule="evenodd" d="M72.2042 17.3608H72.3137V10.4478H72.9341V17.2434H72.2042V17.3738H72.3137H72.192V17.4782H73.1653V10.2H72.0947V17.4782H72.2042V17.3608ZM76.7905 17.3608H75.9389V11.1782H74.1141V10.3173H78.6152V11.1782H76.7905V17.3608Z" fill="white"/>
<path fill-rule="evenodd" clip-rule="evenodd" d="M76.7907 17.3607V17.2433H76.0608V11.0607H74.2239V10.4347H78.506V11.0607H76.6812V17.3607H76.7907V17.2433V17.3738H76.9002V11.2955H78.725V10.1999H74.0049V11.2955H75.8297V17.4781H76.9002V17.3607H76.7785H76.7907ZM82.9706 15.8607C83.4572 16.3825 84.0655 16.6433 84.7589 16.6433C85.4645 16.6433 86.0606 16.3825 86.5472 15.8607C87.0338 15.339 87.2771 14.6607 87.2771 13.839C87.2771 13.0173 87.0338 12.352 86.5472 11.8173C86.0606 11.2955 85.4645 11.0347 84.7589 11.0347C84.0533 11.0347 83.4572 11.2955 82.9706 11.8173C82.484 12.339 82.2407 13.0173 82.2407 13.839C82.2407 14.6607 82.484 15.339 82.9706 15.8607ZM87.1676 16.4477C86.5228 17.1651 85.7199 17.5172 84.7589 17.5172C83.7978 17.5172 82.9949 17.1651 82.3502 16.4477C82.0331 16.105 81.7836 15.6975 81.6164 15.2493C81.4492 14.8012 81.3678 14.3216 81.377 13.839C81.3672 13.3575 81.4476 12.8788 81.6135 12.4312C81.7794 11.9836 82.0273 11.5763 82.3427 11.2333C82.658 10.8903 83.0344 10.6187 83.4494 10.4344C83.8644 10.2502 84.3097 10.1571 84.7589 10.1607C85.2081 10.1571 85.6533 10.2502 86.0684 10.4344C86.4834 10.6187 86.8597 10.8903 87.1751 11.2333C87.4904 11.5763 87.7384 11.9836 87.9043 12.4312C88.0701 12.8788 88.1506 13.3575 88.1408 13.839C88.1408 14.8694 87.8123 15.7433 87.1676 16.4477Z" fill="white"/>
<path fill-rule="evenodd" clip-rule="evenodd" d="M82.971 15.8607L82.898 15.9389C83.409 16.4868 84.0294 16.7737 84.7593 16.7737C85.4892 16.7737 86.1218 16.4868 86.6206 15.9389C87.1315 15.3911 87.387 14.6868 87.387 13.852C87.387 12.9911 87.1315 12.2868 86.6206 11.739C86.3808 11.4698 86.0916 11.2566 85.7713 11.113C85.451 10.9693 85.1065 10.8982 84.7593 10.9042C84.0294 10.9042 83.409 11.1911 82.898 11.739C82.6446 12.0154 82.4461 12.3439 82.3144 12.7048C82.1827 13.0658 82.1205 13.4516 82.1316 13.8389C82.1316 14.6868 82.3871 15.4042 82.898 15.9389L83.0562 15.7824C82.8214 15.527 82.6377 15.2229 82.5164 14.8887C82.3951 14.5545 82.3387 14.1973 82.3506 13.8389C82.3506 13.0563 82.5939 12.4042 83.0562 11.8955C83.2765 11.6508 83.5414 11.4574 83.8344 11.3273C84.1274 11.1971 84.4422 11.133 84.7593 11.139C85.4406 11.139 86.0002 11.3998 86.4624 11.8955C86.9369 12.4172 87.168 13.0433 87.168 13.852C87.168 14.6346 86.9247 15.2737 86.4624 15.7824C86.0002 16.2911 85.4406 16.5389 84.7593 16.5389C84.4422 16.5449 84.1274 16.4808 83.8344 16.3506C83.5414 16.2205 83.2765 16.027 83.0562 15.7824L82.971 15.8607ZM87.168 16.4476L87.095 16.3694C86.4624 17.0607 85.696 17.3998 84.7593 17.4128C84.3255 17.4147 83.8958 17.3234 83.4955 17.1443C83.0951 16.9652 82.7323 16.7019 82.4284 16.37C82.1246 16.0381 81.8857 15.6443 81.7261 15.2118C81.5665 14.7793 81.4893 14.317 81.499 13.852C81.4876 13.3859 81.5636 12.9221 81.7225 12.4882C81.8814 12.0542 82.1199 11.6588 82.424 11.3255C82.728 10.9922 83.0914 10.7278 83.4926 10.5478C83.8937 10.3679 84.3245 10.2762 84.7593 10.2781C85.696 10.2781 86.4624 10.6172 87.0829 11.3216C87.7154 12.0129 88.0317 12.8476 88.0317 13.8389C88.0317 14.8433 87.7154 15.6781 87.095 16.3694L87.2532 16.5389C87.9101 15.8085 88.2507 14.8955 88.2507 13.8389C88.2605 13.342 88.1772 12.848 88.0058 12.3862C87.8344 11.9244 87.5784 11.5041 87.2529 11.1503C86.9274 10.7964 86.539 10.5161 86.1107 10.326C85.6824 10.1358 85.2229 10.0397 84.7593 10.0433C84.2968 10.0415 83.8386 10.1389 83.4117 10.3298C82.9848 10.5207 82.5978 10.8013 82.2736 11.155C81.9494 11.5087 81.6945 11.9283 81.5238 12.3893C81.3532 12.8502 81.2703 13.3431 81.2801 13.8389C81.2801 14.8955 81.6085 15.7955 82.2776 16.5389C82.9345 17.2694 83.7739 17.6346 84.7593 17.6346C85.7447 17.6346 86.5841 17.2694 87.2532 16.5389L87.168 16.4476ZM89.3334 17.3607V10.3172H90.3553L93.5426 15.7955H93.579L93.5426 14.4389V10.3172H94.3941V17.3607H93.5061L90.1606 11.6216H90.1241L90.1606 12.9781V17.3607H89.3212" fill="white"/>
<path fill-rule="evenodd" clip-rule="evenodd" d="M89.3326 17.3608H89.4299V10.4478H90.2815L93.4809 15.926H93.6877L93.6512 14.4391V10.4347H94.2716V17.2434H93.5661L90.2206 11.5043H90.0138L90.0503 12.9782V17.2434H89.3204V17.3738H89.4421H89.3204V17.4782H90.2693V12.9782L90.2328 11.6086H90.1233V11.7391H90.1598V11.6086L90.0747 11.6739L93.4444 17.4782H94.4906V10.2H93.4322V14.4391L93.4687 15.7956H93.5782V15.6782H93.5417V15.8086L93.6391 15.7304L90.4153 10.2H89.2109V17.4782H89.3326V17.3608Z" fill="white"/>
</svg>
