<svg width="25" height="25" viewBox="0 0 25 25" fill="none" xmlns="http://www.w3.org/2000/svg">
<path d="M23.6558 13.4985C23.2416 13.4985 22.9058 13.1627 22.9058 12.7486C22.9058 6.95906 18.1957 2.24896 12.4062 2.24896C11.992 2.24896 11.6562 1.91317 11.6562 1.49899C11.6562 1.08482 11.992 0.749023 12.4062 0.749023C15.6115 0.749023 18.6248 1.99716 20.8912 4.26357C23.1576 6.52998 24.4058 9.54332 24.4058 12.7486C24.4058 13.1627 24.07 13.4985 23.6558 13.4985Z" fill="#775F53"/>
<path d="M20.6559 13.4986C20.2417 13.4986 19.9059 13.1628 19.9059 12.7487C19.9059 8.61333 16.5416 5.24896 12.4062 5.24896C11.992 5.24896 11.6562 4.91317 11.6562 4.49899C11.6562 4.08482 11.992 3.74902 12.4062 3.74902C17.3686 3.74902 21.4059 7.78626 21.4059 12.7487C21.4059 13.1628 21.0701 13.4986 20.6559 13.4986Z" fill="#775F53"/>
<path d="M17.656 13.4988C17.2418 13.4988 16.906 13.163 16.906 12.7488C16.906 10.2676 14.8875 8.24896 12.4062 8.24896C11.992 8.24896 11.6562 7.91317 11.6562 7.49899C11.6562 7.08482 11.992 6.74902 12.4062 6.74902C15.7145 6.74902 18.406 9.44048 18.406 12.7488C18.406 13.163 18.0702 13.4988 17.656 13.4988Z" fill="#775F53"/>
<path d="M24.4049 12.7486C24.4049 13.1629 24.0693 13.4985 23.6549 13.4985C23.5181 13.4985 23.3901 13.462 23.28 13.3982C23.504 13.2688 23.6549 13.026 23.6549 12.7486C23.6549 9.54337 22.4067 6.52989 20.1404 4.26357C18.0161 2.13928 15.2356 0.90933 12.2559 0.763554C12.3041 0.754179 12.3543 0.749023 12.4054 0.749023C15.6106 0.749023 18.624 1.99726 20.8904 4.26357C23.1567 6.52989 24.4049 9.54337 24.4049 12.7486Z" fill="#775F53"/>
<path d="M21.4053 12.7487C21.4053 13.163 21.0697 13.4986 20.6553 13.4986C20.5184 13.4986 20.3905 13.4621 20.2803 13.3983C20.5044 13.269 20.6553 13.0262 20.6553 12.7487C20.6553 7.98214 16.9303 4.06917 12.2383 3.76777C12.2922 3.75559 12.348 3.74902 12.4056 3.74902C17.3681 3.74902 21.4053 7.78621 21.4053 12.7487Z" fill="#775F53"/>
<path d="M18.4057 12.7488C18.4057 13.1631 18.0701 13.4988 17.6557 13.4988C17.5189 13.4988 17.3909 13.4622 17.2807 13.3984C17.5048 13.2691 17.6557 13.0263 17.6557 12.7488C17.6557 9.6275 15.26 7.05557 12.2109 6.7748C12.2733 6.75793 12.3384 6.74902 12.4059 6.74902C15.7142 6.74902 18.4057 9.44048 18.4057 12.7488Z" fill="#775F53"/>
<path d="M24.4062 17.9796C24.4062 19.1163 24.1372 20.1929 23.6071 21.1792C23.1093 22.1044 22.3884 22.9144 21.5212 23.5219C20.6578 24.127 19.6556 24.5264 18.624 24.6778C18.3005 24.7251 17.9771 24.749 17.6551 24.749C16.8803 24.749 16.112 24.6121 15.3611 24.3393C12.0519 23.1371 8.98029 21.1792 6.4782 18.6771C3.97611 16.175 2.01822 13.1034 0.815919 9.79414C0.429684 8.73105 0.315782 7.63328 0.477495 6.5313C0.628895 5.49962 1.02825 4.49747 1.63339 3.63407C2.24086 2.76691 3.05083 2.046 3.97611 1.54821C4.96232 1.01808 6.039 0.749023 7.17567 0.749023C7.52956 0.749023 7.83518 0.996045 7.90924 1.34197L9.08622 6.8355C9.13965 7.08393 9.06325 7.34314 8.88326 7.52266L6.87193 9.53446C8.76936 13.3068 11.8485 16.3859 15.6208 18.2833L17.6326 16.272C17.8121 16.092 18.0713 16.0156 18.3198 16.069L23.8133 17.246C24.1592 17.3201 24.4062 17.6257 24.4062 17.9796Z" fill="#775F53"/>
<path d="M5.44071 2.48333C4.30403 2.48333 3.22736 2.75238 2.24115 3.28252C2.02319 3.3997 1.81132 3.52954 1.60742 3.6711C1.61539 3.65844 1.6243 3.64625 1.63273 3.63407C2.24021 2.76691 3.05018 2.046 3.97545 1.54821C4.96167 1.01808 6.03834 0.749023 7.17502 0.749023C7.52891 0.749023 7.83452 0.996045 7.90858 1.34197L9.08557 6.8355C9.139 7.08393 9.0626 7.34314 8.88261 7.52266L7.1483 9.25697C7.32829 9.07745 7.40469 8.81824 7.35126 8.56981L6.17427 3.07628C6.10021 2.73035 5.7946 2.48333 5.44071 2.48333Z" fill="#775F53"/>
<path d="M15.6215 18.2831L14.6266 19.278C14.1755 19.7291 13.4786 19.8176 12.9255 19.4996C9.90688 17.7641 7.39162 15.2488 5.65609 12.2302C5.33811 11.6771 5.42656 10.9802 5.87766 10.5291L6.87255 9.53418C8.77002 13.3066 11.8491 16.3857 15.6215 18.2831Z" fill="#775F53"/>
<path d="M24.4064 17.979C24.4064 19.1157 24.1373 20.1924 23.6072 21.1786C23.1094 22.1039 22.3885 22.9138 21.5213 23.5213C21.5092 23.5298 21.497 23.5387 21.4843 23.5466C21.6259 23.3427 21.7557 23.1309 21.8729 22.9129C22.403 21.9267 22.6721 20.85 22.6721 19.7133C22.6721 19.3595 22.4251 19.0538 22.0791 18.9798L16.5856 17.8028C16.3372 17.7494 16.078 17.8258 15.8984 18.0058L17.6327 16.2714C17.8123 16.0915 18.0715 16.0151 18.3199 16.0685L23.8134 17.2455C24.1594 17.3195 24.4064 17.6251 24.4064 17.979Z" fill="#775F53"/>
</svg>
