
<svg width="21" height="25" viewBox="0 0 21 25" fill="none" xmlns="http://www.w3.org/2000/svg">
<path d="M18.8336 21.6742C18.8336 20.1376 15.184 18.8921 10.6818 18.8921C6.1798 18.8921 2.53027 20.1376 2.53027 21.6742C2.53027 23.2106 6.1798 24.4563 10.6818 24.4563C15.184 24.4563 18.8336 23.2106 18.8336 21.6742Z" fill="white"/>
<path d="M10.6821 24.6604C5.9556 24.6604 2.25293 23.3489 2.25293 21.6747C2.25293 20.0003 5.9556 18.689 10.6821 18.689C15.4094 18.689 19.1121 20.0003 19.1121 21.6747C19.1121 23.3489 15.4088 24.6604 10.6821 24.6604V24.6604ZM10.6821 19.0962C6.41355 19.0962 2.80822 20.2769 2.80822 21.6747C2.80822 23.0723 6.41409 24.2531 10.6821 24.2531C14.9501 24.2531 18.5568 23.0723 18.5568 21.6747C18.5568 20.2769 14.9501 19.0962 10.6821 19.0962V19.0962Z" fill="#775F53"/>
<path d="M20.4063 7.9942C20.4063 12.7045 10.4067 21.7939 10.4067 21.7939C10.4067 21.7939 0.40625 12.7305 0.40625 7.9942C0.40625 3.94357 4.88356 0.660156 10.4061 0.660156C15.9284 0.660156 20.4063 3.94357 20.4063 7.9942Z" fill="#775F53"/>
<path d="M15.9912 8.0456C15.9912 10.1665 13.6472 11.8858 10.7555 11.8858C7.8638 11.8858 5.51953 10.1665 5.51953 8.0456C5.51953 5.92473 7.8638 4.20557 10.7555 4.20557C13.6472 4.20557 15.9912 5.92473 15.9912 8.0456Z" fill="white"/>
</svg>
