<svg width="25" height="21" viewBox="0 0 25 21" fill="none" xmlns="http://www.w3.org/2000/svg">
<path d="M16.4395 11.117L24.5304 17.317V4.65527L16.4395 11.117Z" fill="#775F53"/>
<path d="M0.530273 4.65527V17.317L8.62127 11.117L0.530273 4.65527Z" fill="#775F53"/>
<path d="M23.0302 0.96875H2.03019C1.2817 0.96875 0.687695 1.64511 0.575195 2.51601L12.5302 12.0632L24.4852 2.51601C24.3727 1.64511 23.7787 0.96875 23.0302 0.96875Z" fill="#775F53"/>
<path d="M15.0651 12.2162L12.9426 13.9107C12.8166 14.0107 12.6741 14.0598 12.5301 14.0598C12.3861 14.0598 12.2436 14.0107 12.1176 13.9107L9.99512 12.2144L0.578125 19.4343C0.693625 20.2979 1.28462 20.9688 2.03012 20.9688H23.0301C23.7756 20.9688 24.3666 20.2979 24.4821 19.4343L15.0651 12.2162Z" fill="#775F53"/>
</svg>
